<svg xmlns="http://www.w3.org/2000/svg" width="2934" height="927" fill="none" viewBox="0 0 2934 927">
  <path fill="url(#paint0_linear_1358_6901)" d="M1344 896c-616.15-54.789-950.754-11.157-1012.506-1.704-7.132 1.092-14.06 2.254-21.191 3.354l-136.687 21.081C59.976 936.257-30.316 824.665 10.54 717.186l212.204-558.244a324.996 324.996 0 0175.943-116.275l157.855-155.195a206.997 206.997 0 01140.415-59.336l1565.933-35.622c14.96-.34 29.85 1.965 44.01 6.809l437.97 149.883a127.082 127.082 0 0118.61 8.079l203.16 108.263c53.41 28.465 79.32 90.671 61.9 148.637l-137.27 456.671c-24.49 81.468-88.52 145.178-170.73 167.077-83.46 22.235-187.77 48.221-253.54 58.067-83.5 12.5-337 61-1023 0z"/>
  <defs>
    <linearGradient id="paint0_linear_1358_6901" x1="3000" x2="-171.999" y1="358" y2="358" gradientUnits="userSpaceOnUse">
      <stop stop-color="#F4F9F9" stop-opacity=".59"/>
      <stop offset=".191" stop-color="#F4F9F9"/>
      <stop offset=".836" stop-color="#F4F9F9"/>
      <stop offset="1" stop-color="#F4F9F9" stop-opacity=".48"/>
    </linearGradient>
  </defs>
</svg>
