<svg xmlns="http://www.w3.org/2000/svg" width="16" height="16" fill="none" viewBox="0 0 16 16">
  <path fill="#46BF97" fill-rule="evenodd" d="M2.139 6.409c-.599-2.153-.61-4.127-.042-5.922L2.25 0l.435.267c.928.568 1.8 1.396 2.57 2.402a7.25 7.25 0 012.725-.507c.994 0 1.928.18 2.747.516.726-.982 1.595-1.804 2.586-2.411L13.75 0l.154.487c.573 1.815.557 3.812-.062 5.993l-.007-.002a5.317 5.317 0 01-.32 2.678l-.066.166-.167.062c-1.933.716-3.406 1.58-4.413 2.601a.883.883 0 01-.618.634.564.564 0 01-.543-.002.884.884 0 01-.61-.619c-1.03-1.038-2.492-1.881-4.38-2.54l-.169-.06-.068-.165a5.315 5.315 0 01-.341-2.824zm.487-1.468c-.221-1.309-.193-2.54.088-3.696.645.47 1.254 1.076 1.808 1.781-.813.47-1.47 1.118-1.896 1.915zm5.562 6.017a.957.957 0 00-.396-.004 7.285 7.285 0 00-.045-.57c-.089-2.657-.589-4.902-2.012-7.041a6.51 6.51 0 012.246-.382c.819 0 1.595.136 2.283.395-1.32 2.094-2.06 4.773-2.076 7.602zM12.83 8.7c-1.568.597-2.84 1.294-3.823 2.087.045-.707.198-1.343.464-1.908a.911.911 0 101.101-1.45c.617-.54 1.411-.965 2.38-1.281.087.33.133.681.133 1.054 0 .523-.09 1.027-.255 1.498zM9.398 7.503c.743-.92 1.83-1.626 3.273-2.103-.364-.718-.95-1.295-1.68-1.707-.718 1.112-1.256 2.408-1.593 3.81zm-2.753.11A10.592 10.592 0 005 3.679c-.746.414-1.343 1-1.711 1.731 1.488.507 2.606 1.242 3.356 2.203zM3.007 6.158c-.085.326-.13.675-.13 1.044 0 .548.097 1.074.278 1.564 1.543.555 2.81 1.236 3.804 2.037l-.008-.316a4.976 4.976 0 00-.496-1.656.883.883 0 11-1.093-1.386c-.615-.535-1.4-.963-2.355-1.287zm10.279-4.916a8.617 8.617 0 00-1.833 1.792c.825.479 1.488 1.143 1.912 1.961.231-1.33.206-2.581-.08-3.753z" clip-rule="evenodd"/>
  <path fill="#46BF97" d="M7.98 14.38l2.327 1.01V12.9L7.98 13.91 5.655 12.9v2.488L7.98 14.38z"/>
</svg>
