<svg viewBox="0 0 266 156" fill="none" xmlns="http://www.w3.org/2000/svg"><g filter="url(#a)"><path d="M18.002 74.091c-.42-23.056-.63-34.583 5.193-42.861a31.272 31.272 0 0 1 6.59-6.841c8.054-6.127 19.465-6.346 42.288-6.783C89.757 17.267 109.546 17 128 17s38.243.267 55.927.606c22.823.437 34.234.656 42.289 6.783a31.282 31.282 0 0 1 6.589 6.84c5.822 8.279 5.613 19.806 5.193 42.862-.418 22.982-.626 34.473-6.618 42.481a31.026 31.026 0 0 1-6.704 6.583C216.56 129 205.068 129 182.082 129H73.918c-22.986 0-34.478 0-42.594-5.845a31.004 31.004 0 0 1-6.704-6.583c-5.992-8.008-6.2-19.5-6.618-42.48Z" fill="#2F4453"/></g><path d="m76.905 63.027-5.024-11.28h2.224l4.048 9.472h-.672l4.048-9.472h2.144l-5.024 11.28h-1.744ZM86.795 63.187c-.704 0-1.323-.166-1.856-.496-.533-.342-.95-.827-1.248-1.456-.299-.63-.448-1.382-.448-2.256 0-.875.15-1.622.448-2.24.299-.63.715-1.11 1.248-1.44.533-.342 1.152-.512 1.856-.512.683 0 1.28.17 1.792.512.523.33.87.778 1.04 1.344h-.176l.176-1.696h1.92l-.096 1.008c-.021.34-.032.677-.032 1.008v6.064h-1.984l-.016-1.664h.192c-.17.554-.517.997-1.04 1.328a3.251 3.251 0 0 1-1.776.496Zm.56-1.536c.63 0 1.136-.22 1.52-.656.384-.448.576-1.12.576-2.016 0-.896-.192-1.563-.576-2-.384-.438-.89-.656-1.52-.656s-1.136.218-1.52.656c-.384.437-.576 1.104-.576 2 0 .896.187 1.568.56 2.016.384.437.896.656 1.536.656ZM96.733 63.187c-.704 0-1.328-.166-1.872-.496-.534-.342-.95-.827-1.248-1.456-.299-.63-.448-1.382-.448-2.256 0-.875.15-1.622.448-2.24.299-.63.715-1.11 1.248-1.44.544-.342 1.168-.512 1.872-.512.672 0 1.264.165 1.776.496.522.32.87.757 1.04 1.312h-.208V51.25h2v11.776h-1.968v-1.712h.192a2.427 2.427 0 0 1-1.04 1.376c-.512.33-1.11.496-1.792.496Zm.56-1.536c.63 0 1.136-.22 1.52-.656.384-.448.576-1.12.576-2.016 0-.896-.192-1.563-.576-2-.384-.438-.89-.656-1.52-.656s-1.142.218-1.536.656c-.384.437-.576 1.104-.576 2 0 .896.192 1.568.576 2.016.394.437.906.656 1.536.656ZM111.029 63.187c-.704 0-1.322-.166-1.856-.496-.533-.342-.949-.827-1.248-1.456-.298-.63-.448-1.382-.448-2.256 0-.875.15-1.622.448-2.24.299-.63.715-1.11 1.248-1.44.534-.342 1.152-.512 1.856-.512.683 0 1.28.17 1.792.512.523.33.87.778 1.04 1.344h-.176l.176-1.696h1.92l-.096 1.008c-.021.34-.032.677-.032 1.008v6.064h-1.984l-.016-1.664h.192c-.17.554-.517.997-1.04 1.328a3.248 3.248 0 0 1-1.776.496Zm.56-1.536c.63 0 1.136-.22 1.52-.656.384-.448.576-1.12.576-2.016 0-.896-.192-1.563-.576-2-.384-.438-.89-.656-1.52-.656-.629 0-1.136.218-1.52.656-.384.437-.576 1.104-.576 2 0 .896.187 1.568.56 2.016.384.437.896.656 1.536.656Zm.704-8.176v-1.84h1.84v1.84h-1.84Zm-3.024 0v-1.84h1.84v1.84h-1.84ZM117.815 63.027V57.01c0-.342-.01-.688-.032-1.04a10.18 10.18 0 0 0-.08-1.024h1.936l.224 2.208h-.32c.107-.534.283-.976.528-1.328.256-.352.566-.614.928-.784.363-.171.758-.256 1.184-.256.192 0 .347.01.464.032.118.01.235.037.352.08l-.016 1.76a2.187 2.187 0 0 0-.528-.16 3.572 3.572 0 0 0-.528-.032c-.458 0-.848.096-1.168.288a1.838 1.838 0 0 0-.704.8c-.149.34-.224.73-.224 1.168v4.304h-2.016ZM128.663 63.027v-11.28h2.064v4.704h5.776v-4.704h2.064v11.28h-2.064v-4.864h-5.776v4.864h-2.064ZM143.806 63.187c-.992 0-1.734-.272-2.224-.816-.491-.544-.736-1.376-.736-2.496v-4.928h2v4.912c0 .597.122 1.04.368 1.328.245.277.618.416 1.12.416.565 0 1.024-.192 1.376-.576.362-.384.544-.891.544-1.52v-4.56h2v8.08h-1.952v-1.648h.224c-.235.576-.592 1.024-1.072 1.344-.47.309-1.019.464-1.648.464ZM155.049 63.187c-.683 0-1.28-.166-1.792-.496a2.448 2.448 0 0 1-1.024-1.376h.176v1.712h-1.984V51.25h2v5.344h-.192a2.382 2.382 0 0 1 1.04-1.312c.512-.331 1.104-.496 1.776-.496.715 0 1.339.17 1.872.512.533.34.949.826 1.248 1.456.299.618.448 1.365.448 2.24 0 .874-.149 1.626-.448 2.256a3.401 3.401 0 0 1-1.264 1.44c-.533.33-1.152.496-1.856.496Zm-.56-1.536c.629 0 1.136-.22 1.52-.656.395-.438.592-1.104.592-2 0-.896-.197-1.563-.592-2-.384-.448-.891-.672-1.52-.672s-1.136.218-1.52.656c-.384.437-.576 1.104-.576 2 0 .896.192 1.568.576 2.016.384.437.891.656 1.52.656ZM160.347 63.027V51.25h2v11.776h-2ZM164.519 63.027v-8.08h2v8.08h-2Zm-.112-9.6v-1.952h2.224v1.952h-2.224ZM168.691 63.027v-6.064a16.418 16.418 0 0 0-.128-2.016h1.936l.16 1.6h-.192a2.811 2.811 0 0 1 1.136-1.296c.501-.31 1.082-.464 1.744-.464.949 0 1.664.266 2.144.8.48.533.72 1.365.72 2.496v4.944h-2v-4.848c0-.651-.128-1.115-.384-1.392-.246-.288-.619-.432-1.12-.432-.619 0-1.11.192-1.472.576-.363.384-.544.896-.544 1.536v4.56h-2ZM179.776 59.683v-.64c0-.502.096-.966.288-1.392.192-.427.523-.891.992-1.392.352-.374.597-.7.736-.976.149-.288.224-.576.224-.864 0-.363-.139-.646-.416-.848-.267-.203-.64-.304-1.12-.304-.416 0-.827.064-1.232.192a5.594 5.594 0 0 0-1.152.512v-1.728a4.578 4.578 0 0 1 1.264-.48c.48-.118.949-.176 1.408-.176.629 0 1.189.096 1.68.288.501.18.891.464 1.168.848.288.373.432.853.432 1.44 0 .352-.064.693-.192 1.024-.117.32-.288.629-.512.928a6.358 6.358 0 0 1-.832.896c-.523.458-.885.858-1.088 1.2a2.646 2.646 0 0 0-.368 1.024l-.064.448h-1.216Zm-.512 3.344v-2.224h2.24v2.224h-2.24Z" fill="#D2DADA"/><path opacity=".84" fill-rule="evenodd" clip-rule="evenodd" d="m135.667 93.823-6.864 6.845a1.136 1.136 0 0 1-1.606 0l-6.864-6.845a1.13 1.13 0 0 1 0-1.602c.443-.442 1.224-.163 1.667.279l5 5-.136-17.368c0-.625.509-1.132 1.136-1.132.627 0 1.136.507 1.136 1.132L129 97.5l5-5c.443-.442 1.224-.721 1.667-.279a1.13 1.13 0 0 1 0 1.602Z" fill="#D2DADA"/><defs><filter id="a" x=".816" y="0" width="264.367" height="156" filterUnits="userSpaceOnUse" color-interpolation-filters="sRGB"><feFlood flood-opacity="0" result="BackgroundImageFix"/><feColorMatrix in="SourceAlpha" values="0 0 0 0 0 0 0 0 0 0 0 0 0 0 0 0 0 0 127 0" result="hardAlpha"/><feOffset dx="5" dy="5"/><feGaussianBlur stdDeviation="11"/><feComposite in2="hardAlpha" operator="out"/><feColorMatrix values="0 0 0 0 0.305069 0 0 0 0 0.451162 0 0 0 0 0.461597 0 0 0 0.21 0"/><feBlend in2="BackgroundImageFix" result="effect1_dropShadow_2056_4294"/><feBlend in="SourceGraphic" in2="effect1_dropShadow_2056_4294" result="shape"/></filter></defs></svg>